<?xml version="1.0" encoding="UTF-8" standalone="no"?>
<!DOCTYPE svg PUBLIC "-//W3C//DTD SVG 1.1//EN"
 "http://www.w3.org/Graphics/SVG/1.1/DTD/svg11.dtd">
<!-- Generated by graphviz version 2.38.0 (20140413.2041)
 -->
<!-- Title: G Pages: 1 -->
<svg width="338pt" height="222pt"
 viewBox="0.00 0.00 338.00 222.00" xmlns="http://www.w3.org/2000/svg" xmlns:xlink="http://www.w3.org/1999/xlink">
<g id="graph0" class="graph" transform="scale(1 1) rotate(0) translate(4 218)">
<title>G</title>
<polygon fill="white" stroke="none" points="-4,4 -4,-218 334,-218 334,4 -4,4"/>
<g id="clust1" class="cluster"><title>cluster_Global</title>
<path fill="none" stroke="gray" d="M20,-8C20,-8 310,-8 310,-8 316,-8 322,-14 322,-20 322,-20 322,-194 322,-194 322,-200 316,-206 310,-206 310,-206 20,-206 20,-206 14,-206 8,-200 8,-194 8,-194 8,-20 8,-20 8,-14 14,-8 20,-8"/>
<text text-anchor="middle" x="165" y="-193.2" font-family="Times,serif" font-size="11.00" fill="gray">Global</text>
</g>
<g id="clust2" class="cluster"><title>cluster_\Psr</title>
<path fill="none" stroke="gray" d="M28,-16C28,-16 154,-16 154,-16 160,-16 166,-22 166,-28 166,-28 166,-166 166,-166 166,-172 160,-178 154,-178 154,-178 28,-178 28,-178 22,-178 16,-172 16,-166 16,-166 16,-28 16,-28 16,-22 22,-16 28,-16"/>
<text text-anchor="middle" x="91" y="-165.2" font-family="Times,serif" font-size="11.00" fill="gray">Psr</text>
</g>
<g id="clust3" class="cluster"><title>cluster_\Psr\Log</title>
<path fill="none" stroke="gray" d="M36,-24C36,-24 146,-24 146,-24 152,-24 158,-30 158,-36 158,-36 158,-138 158,-138 158,-144 152,-150 146,-150 146,-150 36,-150 36,-150 30,-150 24,-144 24,-138 24,-138 24,-36 24,-36 24,-30 30,-24 36,-24"/>
<text text-anchor="middle" x="91" y="-137.2" font-family="Times,serif" font-size="11.00" fill="gray">Log</text>
</g>
<g id="clust4" class="cluster"><title>cluster_\Logger</title>
<path fill="none" stroke="gray" d="M226,-24C226,-24 302,-24 302,-24 308,-24 314,-30 314,-36 314,-36 314,-138 314,-138 314,-144 308,-150 302,-150 302,-150 226,-150 226,-150 220,-150 214,-144 214,-138 214,-138 214,-36 214,-36 214,-30 220,-24 226,-24"/>
<text text-anchor="middle" x="264" y="-137.2" font-family="Times,serif" font-size="11.00" fill="gray">Logger</text>
</g>
<!-- \\Psr\\Log\\LogLevel -->
<g id="node1" class="node"><title>\\Psr\\Log\\LogLevel</title>
<polygon fill="none" stroke="black" points="126.5,-122 55.5,-122 55.5,-86 126.5,-86 126.5,-122"/>
<text text-anchor="middle" x="91" y="-101.2" font-family="Courier,monospace" font-size="11.00">LogLevel</text>
</g>
<!-- \\Psr\\Log\\LoggerInterface -->
<g id="node2" class="node"><title>\\Psr\\Log\\LoggerInterface</title>
<polygon fill="none" stroke="black" points="150,-68 32,-68 32,-32 150,-32 150,-68"/>
<text text-anchor="middle" x="91" y="-47.2" font-family="Courier,monospace" font-size="11.00">LoggerInterface</text>
</g>
<!-- \\Logger\\LogObject -->
<g id="node3" class="node"><title>\\Logger\\LogObject</title>
<polygon fill="none" stroke="black" points="302.5,-122 225.5,-122 225.5,-86 302.5,-86 302.5,-122"/>
<text text-anchor="middle" x="264" y="-101.2" font-family="Courier,monospace" font-size="11.00">LogObject</text>
</g>
<!-- \\Logger\\JsonLogger -->
<g id="node4" class="node"><title>\\Logger\\JsonLogger</title>
<polygon fill="none" stroke="black" points="306,-68 222,-68 222,-32 306,-32 306,-68"/>
<text text-anchor="middle" x="264" y="-47.2" font-family="Courier,monospace" font-size="11.00">JsonLogger</text>
</g>
<!-- \\Logger\\JsonLogger&#45;&gt;\\Psr\\Log\\LoggerInterface -->
<g id="edge1" class="edge"><title>\\Logger\\JsonLogger&#45;&gt;\\Psr\\Log\\LoggerInterface</title>
<path fill="none" stroke="black" stroke-dasharray="1,5" d="M221.606,-50C203.173,-50 180.974,-50 160.197,-50"/>
<polygon fill="none" stroke="black" points="160.135,-46.5001 150.135,-50 160.135,-53.5001 160.135,-46.5001"/>
</g>
</g>
</svg>
